<svg width="1873" height="1240" viewBox="0 0 1873 1240" fill="none" xmlns="http://www.w3.org/2000/svg">
<g clip-path="url(#clip0_3:6733)">
<path d="M1236 522.5L1610 168L1706 254.427L1236 522.5Z" fill="#FFD81D"/>
<path d="M834.47 195.058L873.545 22.5321L982.999 25.3869L834.47 195.058Z" fill="#F44131"/>
<path d="M290.731 131.671L121.994 178.948L167.219 275.789L319.994 306.671L290.731 131.671Z" fill="#FFD81D"/>
<circle cx="202.994" cy="520.006" r="31" fill="#252636"/>
<path d="M314.994 976.243L588.579 711.671L604.028 732.914L339.456 976.243H314.994Z" fill="#FFD81D"/>
<path d="M401.987 1078.16L370.079 901.998L381.679 899.198L407.896 1067.09L401.987 1078.16Z" fill="#5F9FFF"/>
<path d="M1549.29 1071.46L1534.88 1037.71L1597.24 1050.99L1549.29 1071.46Z" fill="#FF7B70"/>
<path d="M389.618 598.094L765.172 494.36L799.702 512.293L389.618 598.094Z" fill="white"/>
<path d="M1051.99 616.171L1117.99 544.671L1075.49 608.671L1051.99 616.171Z" fill="white"/>
<path d="M280.5 -446.077C372.571 -470.211 404.677 -418.89 630 -323.075C911.653 -203.307 -10.0039 417.423 -76 289.423" stroke="#D9E1FF" stroke-width="3" stroke-dasharray="20 12"/>
<path d="M-121.5 1148.5C-45.3333 1184.17 153.6 1220.1 340 1078.5C573 901.5 969 561 1966.5 554" stroke="#FFC794" stroke-width="3" stroke-dasharray="20 12"/>
</g>
<defs>
<clipPath id="clip0_3:6733">
<rect width="1873" height="1240" fill="white"/>
</clipPath>
</defs>
</svg>
